<?xml version="1.0" encoding="utf-8"?>
<!-- Generator: Adobe Illustrator 24.2.0, SVG Export Plug-In . SVG Version: 6.00 Build 0)  -->
<svg version="1.1" id="Capa_1" xmlns="http://www.w3.org/2000/svg" xmlns:xlink="http://www.w3.org/1999/xlink" x="0px" y="0px"
	 viewBox="0 0 800 800" style="enable-background:new 0 0 800 800;" xml:space="preserve">
<style type="text/css">
	.st0{fill:#020202;}
</style>
<g>
	<g>
		<g>
			<path class="st0" d="M8.33,446.2c24.88-9.4,50.78-17.76,77.5-19.38c24.82-1.5,48.12,4.08,70.36,14.92
				c20.43,9.95,39.37,22.62,59.55,33.04c20.85,10.77,42.91,18.59,66.58,19.24c25.5,0.69,50.66-6.04,73.76-16.47
				c22.02-9.94,41.53-24.11,61.8-37.07c18.82-12.04,39.22-23.83,61.79-26.6c24.36-2.99,47.26,6.17,67.26,19.42
				c21.35,14.14,39.41,32.58,59.77,48.03c20.66,15.68,44.18,27.11,69.59,32.59c6.18,1.33,12.44,2.28,18.73,2.97
				c2.71,0.3,4.97-2.51,5-5c0.03-2.95-2.33-4.71-5-5c-25.57-2.81-50.28-11.84-71.74-25.99c-21.75-14.34-40.05-33.15-60.81-48.79
				c-19.43-14.63-41.84-26.75-66.51-28.59c-23.22-1.73-45.52,6.61-65.51,17.72c-20.72,11.51-39.57,26.03-60.13,37.81
				c-21.68,12.43-45.82,21.82-70.83,24.34c-24.1,2.42-47.21-2.34-69.07-12.49c-20.61-9.57-39.58-22.19-59.6-32.87
				c-21.12-11.27-43.31-19.79-67.42-21.22c-26.68-1.58-53.33,4.54-78.49,12.91c-6.46,2.15-12.86,4.47-19.23,6.87
				C-0.29,438.81,2.29,448.48,8.33,446.2L8.33,446.2z"/>
		</g>
	</g>
	<g>
		<g>
			<path class="st0" d="M164.83,445.91c4.27,3.49,8.17,7.42,11.8,11.57c1.81,2.07,3.62,4.19,5.26,6.4
				c-0.75-1.02,0.01,0.01,0.14,0.19c0.23,0.3,0.46,0.6,0.68,0.9c0.38,0.5,0.75,1.01,1.13,1.51c0.89,1.21,1.77,2.43,2.64,3.66
				c5.97,8.48,11.32,17.37,16.86,26.13c5.09,8.04,10.53,15.64,17.69,21.99c8.47,7.52,18.21,13.29,28.68,17.54
				c8.34,3.39,17.71,6.11,26.8,5.9c2.61-0.06,5.12-2.26,5-5c-0.12-2.66-2.2-5.07-5-5c-1.5,0.04-3-0.04-4.49-0.18
				c-0.46-0.04-0.91-0.1-1.37-0.15c-0.77-0.08,0.63,0.09,0.62,0.09c-0.23-0.06-0.48-0.07-0.72-0.1c-0.92-0.14-1.83-0.3-2.74-0.48
				c-4.23-0.84-8.39-2.06-12.44-3.55c-1.06-0.39-2.11-0.8-3.15-1.22c-0.32-0.13-1.31-0.35-0.02,0c-0.2-0.05-0.42-0.18-0.61-0.26
				c-0.67-0.29-1.33-0.58-1.99-0.89c-2.31-1.06-4.57-2.21-6.79-3.45c-2.36-1.32-4.66-2.73-6.9-4.25c-1.02-0.69-2.02-1.4-3-2.13
				c-0.3-0.22-0.59-0.45-0.89-0.67c-0.72-0.54,0,0.01,0.13,0.1c-0.71-0.5-1.37-1.09-2.04-1.64c-4.12-3.42-7.85-7.24-11.21-11.41
				c-0.22-0.28-0.4-0.7,0.36,0.47c-0.13-0.19-0.28-0.37-0.42-0.56c-0.24-0.32-0.48-0.64-0.71-0.97c-0.6-0.83-1.19-1.66-1.76-2.5
				c-1.17-1.71-2.3-3.45-3.42-5.19c-5.44-8.51-10.61-17.19-16.34-25.51c-7.11-10.32-14.96-20.44-24.71-28.41
				c-2.02-1.65-5.12-2.13-7.07,0C163.14,440.67,162.66,444.14,164.83,445.91L164.83,445.91z"/>
		</g>
	</g>
	<g>
		<g>
			<path class="st0" d="M91.24,426.59c16.94,0.21,33.92-0.57,50.66-3.27c10.93-1.76,21.69-4.48,32.05-8.4
				c7.88-2.98,15.45-6.64,23.08-10.19c1.64-0.76,3.29-1.52,4.95-2.24c0.37-0.16,0.75-0.32,1.12-0.48c-1.63,0.7-0.4,0.17,0.22-0.09
				c0.82-0.34,1.65-0.66,2.47-0.97c3.32-1.25,6.71-2.31,10.17-3.06c0.92-0.2,1.84-0.38,2.77-0.54c0.43-0.07,0.86-0.14,1.29-0.21
				c0.23-0.04,0.47-0.07,0.7-0.1c0.9-0.14-1.47,0.18-0.36,0.05c2.04-0.25,4.08-0.42,6.14-0.49c4.68-0.17,9.37,0.11,14.01,0.67
				c0.32,0.04,0.64,0.08,0.96,0.12c0.83,0.1-1.37-0.2-0.11-0.01c0.67,0.1,1.33,0.19,2,0.3c2.57,0.4,5.5-0.65,6.15-3.49
				c0.54-2.39-0.73-5.72-3.49-6.15c-9.82-1.52-19.6-2.02-29.44-0.4c-7.46,1.23-14.5,3.92-21.38,7c-3.38,1.52-6.72,3.13-10.08,4.7
				c-1.79,0.84-3.59,1.67-5.39,2.47c-0.96,0.43-1.92,0.85-2.89,1.26c-0.24,0.1-0.48,0.2-0.72,0.31c-0.05,0.02,1.32-0.55,0.65-0.27
				c-0.12,0.05-0.24,0.1-0.37,0.15c-0.52,0.22-1.05,0.43-1.57,0.65c-9.74,3.95-19.85,6.86-30.17,8.84c-3.3,0.63-6.62,1.17-9.96,1.64
				c-0.21,0.03-0.43,0.04-0.64,0.09c0.1-0.02,1.24-0.16,0.36-0.05c-0.38,0.05-0.76,0.1-1.14,0.15c-0.94,0.12-1.89,0.23-2.83,0.34
				c-1.91,0.22-3.82,0.41-5.74,0.58c-8.71,0.78-17.45,1.12-26.19,1.16c-2.43,0.01-4.87,0-7.3-0.03c-2.62-0.03-5.12,2.32-5,5
				C86.36,424.33,88.43,426.56,91.24,426.59L91.24,426.59z"/>
		</g>
	</g>
	<g>
		<g>
			<path class="st0" d="M236.62,484.36c13.07,5.48,27.94,8.69,41.94,4.99c10.78-2.85,19.68-9.82,25.97-18.9
				c5.38-7.77,8.81-17.09,10.23-26.41c0.37-2.42,0.67-4.85,0.79-7.3c0.13-2.51-0.02-5.03,0.21-7.54c0.03-0.38,0.2-0.92,0.14-1.29
				c0.02,0.1-0.2,1.24-0.04,0.38c0.03-0.16,0.05-0.31,0.08-0.47c0.15-0.88,0.33-1.75,0.55-2.61c0.19-0.74,0.41-1.48,0.65-2.21
				c0.11-0.34,0.23-0.67,0.35-1c0.07-0.19,0.14-0.38,0.22-0.56c0.2-0.51,0.59-0.79-0.04,0.08c0.41-0.57,0.64-1.39,0.97-2.02
				c0.37-0.7,0.76-1.4,1.18-2.07c0.39-0.63,0.8-1.26,1.23-1.86c0.22-0.31,0.53-0.63,0.71-0.96c-0.04,0.08-0.76,0.94-0.23,0.3
				c0.16-0.19,0.32-0.39,0.48-0.58c1.01-1.21,2.09-2.35,3.23-3.43c0.6-0.57,1.21-1.12,1.84-1.66c0.32-0.27,0.64-0.54,0.96-0.8
				c0.12-0.1,0.25-0.2,0.37-0.3c0.8-0.65-0.01,0.15-0.14,0.1c0.18,0.07,1.84-1.34,2.07-1.5c0.71-0.49,1.44-0.97,2.17-1.43
				c1.5-0.95,3.04-1.84,4.61-2.67c1.62-0.86,3.26-1.67,4.93-2.43c0.8-0.36,1.6-0.71,2.4-1.06c0.52-0.22-0.37,0.16-0.38,0.16
				c0.21-0.06,0.45-0.18,0.66-0.27c0.49-0.2,0.99-0.4,1.49-0.6c3.55-1.4,7.17-2.63,10.82-3.75c1.89-0.58,3.78-1.13,5.69-1.65
				c2.52-0.7,4.32-3.58,3.49-6.15c-0.83-2.58-3.45-4.24-6.15-3.49c-14.43,3.99-29.4,9.3-40.77,19.39
				c-5.25,4.66-9.33,10.51-11.65,17.14c-1.22,3.5-1.83,7.25-1.99,10.95c-0.1,2.24,0,4.48-0.15,6.73c-0.07,1.02-0.16,2.05-0.28,3.06
				c-0.03,0.26-0.07,0.52-0.1,0.78c0.04-0.43,0.19-1.37,0.05-0.44c-0.08,0.57-0.17,1.13-0.27,1.7c-0.37,2.13-0.85,4.24-1.43,6.32
				c-0.62,2.23-1.36,4.43-2.22,6.59c-0.1,0.24-0.2,0.48-0.29,0.71c-0.22,0.55,0.48-1.12,0.25-0.58c-0.06,0.13-0.12,0.27-0.18,0.41
				c-0.24,0.54-0.48,1.08-0.73,1.62c-0.49,1.04-1.02,2.07-1.57,3.08c-1.16,2.1-2.46,4.11-3.88,6.04c-0.07,0.09-0.14,0.18-0.2,0.27
				c-0.34,0.47,0.74-0.93,0.37-0.48c-0.19,0.23-0.37,0.47-0.56,0.71c-0.38,0.47-0.77,0.93-1.17,1.38c-0.78,0.88-1.59,1.73-2.43,2.54
				c-0.88,0.85-1.8,1.64-2.74,2.42c-0.91,0.75,0.65-0.48,0.11-0.07c-0.22,0.16-0.43,0.32-0.65,0.48c-0.53,0.39-1.07,0.76-1.62,1.12
				c-1.02,0.66-2.06,1.28-3.14,1.84c-0.53,0.28-1.06,0.54-1.6,0.79c-0.29,0.14-0.59,0.26-0.88,0.4c-0.33,0.15-0.8,0.21,0.53-0.22
				c-0.19,0.06-0.38,0.15-0.56,0.23c-2.47,0.98-5.05,1.69-7.66,2.16c-0.3,0.05-0.61,0.11-0.92,0.15c-0.18,0.03-0.35,0.05-0.53,0.08
				c-0.63,0.1,1.17-0.13,0.53-0.07c-0.73,0.07-1.45,0.16-2.18,0.22c-1.52,0.12-3.05,0.15-4.57,0.13c-1.57-0.03-3.14-0.13-4.7-0.29
				c-0.37-0.04-0.89-0.19-1.26-0.15c0.09-0.01,1.26,0.18,0.38,0.05c-0.16-0.02-0.32-0.05-0.48-0.07c-0.93-0.14-1.85-0.3-2.77-0.48
				c-3.74-0.73-7.41-1.77-11-3.03c-1.97-0.69-3.92-1.45-5.84-2.26c-2.42-1.01-5.6,1.09-6.15,3.49
				C232.46,481.13,234.03,483.27,236.62,484.36L236.62,484.36z"/>
		</g>
	</g>
	<g>
		<g>
			<path class="st0" d="M317.42,490.53c2.14-0.4,4.3-0.75,6.45-1.07c0.56-0.08,1.15-0.21,1.71-0.24c-1.47,0.07,0.23-0.03,0.59-0.07
				c1.26-0.16,2.51-0.31,3.77-0.45c5.02-0.55,10.07-0.94,15.11-1.19c10.39-0.52,20.84-0.5,31.21,0.37c2.39,0.2,4.78,0.46,7.16,0.76
				c1.24,0.16-1.14-0.17,0.09,0.01c0.23,0.03,0.47,0.07,0.7,0.1c0.58,0.08,1.15,0.17,1.73,0.27c1.12,0.18,2.23,0.38,3.34,0.59
				c5.47,1.06,10.95,2.4,16.27,4.03c1.29,0.4,2.57,0.82,3.83,1.28c0.7,0.25,1.4,0.52,2.09,0.8c0.28,0.11,0.55,0.22,0.83,0.34
				c-0.98-0.41,0.46,0.22,0.65,0.3c2.38,1.09,4.68,2.35,6.85,3.8c0.52,0.34,1.03,0.7,1.53,1.06c0.25,0.18,0.5,0.37,0.75,0.55
				c0.62,0.45-0.93-0.76,0.02,0.01c0.96,0.79,1.91,1.58,2.82,2.42c1.82,1.68,3.52,3.5,5.08,5.42c0.16,0.19,0.31,0.39,0.47,0.58
				c0.63,0.78-0.54-0.72,0.24,0.32c0.41,0.55,0.81,1.11,1.19,1.67c0.77,1.13,1.51,2.29,2.2,3.47c0.69,1.18,1.34,2.39,1.95,3.62
				c0.33,0.67,0.65,1.35,0.95,2.03c0.07,0.15,0.31,0.56,0.3,0.69c-0.24-0.56-0.28-0.67-0.14-0.33c0.07,0.17,0.14,0.35,0.21,0.52
				c1.02,2.55,1.86,5.18,2.51,7.84c0.34,1.39,0.63,2.8,0.86,4.22c0.05,0.31,0.1,0.62,0.15,0.92c0.17,1.06-0.11-1,0.02,0.15
				c0.09,0.74,0.16,1.48,0.23,2.23c0.22,2.6,2.14,5.13,5,5c2.52-0.11,5.24-2.21,5-5c-0.92-10.82-4.44-21.43-10.6-30.42
				c-3.05-4.44-6.62-8.55-10.78-11.97c-4.76-3.91-9.91-6.82-15.62-9.11c-5.71-2.29-11.72-3.74-17.7-5.13
				c-5.01-1.16-10.06-1.99-15.17-2.57c-10.62-1.22-21.36-1.41-32.04-1.04c-11.54,0.4-23.12,1.44-34.47,3.56
				c-2.58,0.48-4.28,3.73-3.49,6.15C312.16,489.79,314.66,491.04,317.42,490.53L317.42,490.53z"/>
		</g>
	</g>
	<g>
		<g>
			<path class="st0" d="M531.26,424.11c1.34,0.68,2.62,1.46,3.85,2.32c1.04,0.73-0.76-0.69,0.17,0.14c0.27,0.24,0.55,0.47,0.81,0.71
				c0.51,0.47,0.99,0.96,1.45,1.48c0.12,0.14,0.62,0.58,0.64,0.76c-0.13-0.16-0.26-0.33-0.39-0.49c0.13,0.17,0.25,0.35,0.37,0.52
				c0.3,0.43,0.57,0.88,0.83,1.33c0.29,0.51,0.48,1.17,0.81,1.64c-0.56-0.79-0.31-0.77-0.17-0.36c0.13,0.38,0.27,0.75,0.38,1.13
				c0.16,0.52,0.29,1.04,0.41,1.57c0.1,0.46,0.2,2.21,0.14,0.54c0.04,1.16,0.2,2.3,0.18,3.47c-0.05,3.63-0.27,7.26-0.46,10.89
				c-0.75,14.59-1.14,29.27,3.77,43.27c4.43,12.63,11.63,24.18,19.59,34.87c7.65,10.27,16.19,19.82,25.66,28.44
				c10.68,9.72,22.43,18.31,34.97,25.49c2.27,1.3,5.57,0.61,6.84-1.79c1.26-2.38,0.63-5.45-1.79-6.84
				c-5.49-3.14-10.83-6.55-15.98-10.22c-1.23-0.88-2.45-1.77-3.67-2.67c-0.55-0.41-1.1-0.83-1.64-1.24
				c-1.1-0.83,0.79,0.63-0.29-0.23c-0.43-0.34-0.87-0.68-1.3-1.02c-2.48-1.96-4.91-3.99-7.29-6.07c-4.65-4.07-9.11-8.37-13.35-12.87
				c-2.17-2.3-4.28-4.65-6.33-7.05c-0.98-1.15-1.95-2.31-2.9-3.48c-0.48-0.59-0.95-1.17-1.42-1.77c-0.21-0.27-0.43-0.54-0.64-0.81
				c-0.13-0.16-1.21-1.57-0.48-0.61c-3.84-5.02-7.46-10.21-10.78-15.59c-1.75-2.83-3.4-5.71-4.93-8.66
				c-0.74-1.44-1.46-2.9-2.13-4.37c-0.18-0.4-0.37-0.8-0.54-1.21c-0.05-0.12-0.63-1.47-0.19-0.43c-0.34-0.81-0.67-1.63-0.98-2.45
				c-1.2-3.15-2.21-6.38-2.97-9.67c-0.39-1.68-0.68-3.37-0.96-5.07c-0.26-1.55,0.1,0.99-0.08-0.57c-0.04-0.32-0.08-0.63-0.11-0.95
				c-0.12-1.11-0.22-2.22-0.3-3.33c-0.52-7.2-0.19-14.43,0.18-21.63c0.21-4.11,0.48-8.22,0.53-12.34c0.03-2.75-0.28-5.6-1.09-8.24
				c-2.08-6.8-7.1-11.97-13.36-15.15c-2.33-1.19-5.53-0.69-6.84,1.79C528.26,419.55,528.77,422.84,531.26,424.11L531.26,424.11z"/>
		</g>
	</g>
	<g>
		<g>
			<path class="st0" d="M594.18,471.31c17.95,11.95,40.6,5.94,58.69-2.31c7.73-3.53,15.09-7.75,22.4-12.07
				c2.31-1.37,4.62-2.78,7.02-3.99c1.08-0.54,2.19-1.05,3.29-1.56c0.65-0.3,1.31-0.6,1.97-0.89c0.39-0.17,0.77-0.34,1.16-0.51
				c0.2-0.09,1.85-0.79,0.7-0.31c2.71-1.14,5.46-2.18,8.26-3.09c2.9-0.93,5.84-1.7,8.84-2.26c0.67-0.13,1.35-0.24,2.02-0.35
				c0.28-0.04,0.74-0.19,1.02-0.15c-0.76,0.1-0.87,0.12-0.31,0.04c0.23-0.03,0.45-0.05,0.68-0.08c1.5-0.17,3-0.29,4.5-0.36
				c3.2-0.15,6.41-0.09,9.6,0.11c1.75,0.11,3.51,0.26,5.25,0.45c0.85,0.09,1.71,0.19,2.56,0.29c0.44,0.05,0.88,0.11,1.31,0.16
				c0.3,0.04,0.59,0.08,0.89,0.12c-0.58-0.08-0.57-0.08,0.02,0.01c1.39,0.19,2.59,0.24,3.85-0.5c1.04-0.61,2.03-1.8,2.3-2.99
				c0.54-2.35-0.72-5.77-3.49-6.15c-12.12-1.68-24.23-2.41-36.24,0.48c-5.93,1.43-11.62,3.66-17.2,6.11
				c-3.39,1.49-6.7,3.08-9.91,4.94c-6.72,3.9-13.35,7.92-20.3,11.4c-2.1,1.06-4.23,2.07-6.38,3.03c-0.57,0.25-1.15,0.5-1.72,0.75
				c-1.03,0.45,1.08-0.44,0.04-0.01c-0.24,0.1-0.49,0.2-0.73,0.3c-1.12,0.46-2.25,0.9-3.39,1.33c-4.55,1.69-9.21,3.1-13.99,3.99
				c-0.72,0.13-1.44,0.26-2.16,0.37c-0.31,0.05-0.62,0.07-0.92,0.13c1.47-0.3,0.43-0.06,0.1-0.02c-1.33,0.15-2.66,0.26-3.99,0.32
				c-1.32,0.06-2.64,0.06-3.96,0.01c-0.66-0.03-1.31-0.07-1.96-0.12c-0.25-0.02-0.5-0.04-0.75-0.07c-0.39-0.04-1.74-0.35-0.17,0
				c-2.58-0.56-5.1-0.97-7.6-1.88c-0.24-0.09-0.48-0.18-0.71-0.27c-0.14-0.05-0.28-0.11-0.42-0.17c-0.49-0.2-0.38-0.15,0.35,0.15
				c-0.5-0.41-1.37-0.63-1.95-0.92c-1.22-0.62-2.39-1.32-3.52-2.08c-2.18-1.45-5.63-0.5-6.84,1.79
				C591.06,466.98,591.85,469.76,594.18,471.31L594.18,471.31z"/>
		</g>
	</g>
	<g>
		<g>
			<path class="st0" d="M475.5,414.52c5.59-0.93,10.92-3.84,15.67-6.81c5.18-3.23,10.07-6.95,14.77-10.84
				c0.86-0.71,1.71-1.43,2.56-2.15c0.63-0.54,1.28-1.07,1.93-1.59c-0.14,0.11-0.78,0.58-0.02,0.02c0.45-0.33,0.89-0.66,1.34-0.98
				c2.72-1.93,5.6-3.62,8.6-5.06c0.63-0.3,1.26-0.58,1.89-0.87c1.27-0.57-0.95,0.36,0.34-0.14c0.39-0.15,0.77-0.31,1.16-0.46
				c1.56-0.59,3.14-1.12,4.74-1.59c1.54-0.44,3.09-0.82,4.65-1.14c0.75-0.15,1.5-0.29,2.26-0.41c0.41-0.07,0.82-0.14,1.24-0.19
				c-1.13,0.13-0.14,0.02,0.16-0.01c5.94-0.66,11.92-0.74,17.86-1.51c8.53-1.11,16.98-3.02,24.62-7.13
				c9.51-5.12,16.38-13.79,18.93-24.32c0.61-2.54-0.8-5.54-3.49-6.15c-2.57-0.59-5.49,0.77-6.15,3.49
				c-0.29,1.19-0.63,2.38-1.03,3.54c-0.16,0.46-0.34,0.92-0.52,1.38c-0.38,1,0.5-1.09,0.05-0.13c-0.16,0.35-0.31,0.69-0.48,1.03
				c-0.45,0.92-0.94,1.81-1.47,2.68c-0.24,0.38-0.48,0.76-0.74,1.14c-0.15,0.22-0.3,0.44-0.46,0.66c-0.23,0.32-1.08,1.22-0.02,0.05
				c-1.35,1.49-2.61,2.99-4.14,4.31c-0.32,0.28-0.66,0.55-0.99,0.82c-0.76,0.62,0.99-0.73,0.2-0.16c-0.21,0.15-0.41,0.3-0.62,0.45
				c-0.83,0.59-1.69,1.15-2.57,1.68c-1.69,1.01-3.46,1.84-5.25,2.65c1.62-0.74-0.07,0.02-0.47,0.17c-0.4,0.15-0.8,0.3-1.2,0.44
				c-0.96,0.34-1.93,0.66-2.91,0.95c-3.74,1.12-7.58,1.89-11.45,2.44c-0.16,0.02-0.32,0.04-0.47,0.07
				c-0.95,0.14,1.33-0.17,0.39-0.05c-0.47,0.06-0.93,0.12-1.4,0.17c-0.91,0.11-1.82,0.2-2.73,0.29c-1.63,0.16-3.26,0.28-4.89,0.4
				c-2.61,0.18-5.23,0.3-7.83,0.54c-13.08,1.22-25.44,6.48-35.51,14.88c-2.21,1.84-4.39,3.69-6.65,5.47
				c-0.93,0.73,0.62-0.47,0.01-0.01c-0.34,0.26-0.68,0.52-1.02,0.78c-0.7,0.53-1.4,1.04-2.11,1.56c-1.34,0.97-2.7,1.91-4.08,2.83
				c-2.7,1.78-5.48,3.45-8.39,4.85c-0.61,0.3-1.25,0.66-1.9,0.87c1.3-0.42,0.22-0.1-0.05,0c-0.41,0.16-0.81,0.31-1.23,0.45
				c-1.24,0.42-2.51,0.76-3.81,0.98c-2.59,0.43-4.26,3.77-3.49,6.15C470.26,413.82,472.73,414.98,475.5,414.52L475.5,414.52z"/>
		</g>
	</g>
	<g>
		<g>
			<path class="st0" d="M403.62,449.79c22.64-16.22,38.88-39,53.88-62.09c7.17-11.03,14.12-22.22,21.75-32.94
				c4.16-5.84,7.99-10.78,12.56-16.39c4.99-6.12,10.29-12,16.33-17.1c11.05-9.33,24.29-16,37.69-21.25
				c14.77-5.78,30.13-10.7,45.67-13.89c15.78-3.24,32-3.99,47.74-0.15c15.7,3.83,30.41,10.76,45.85,15.42
				c31.5,9.52,64.99,11.71,97.5,6.78c3.93-0.6,7.85-1.31,11.75-2.12c2.64-0.55,4.18-3.67,3.49-6.15c-0.75-2.74-3.5-4.04-6.15-3.49
				c-31.49,6.55-64.43,5.73-95.57-2.31c-15.68-4.05-30.45-10.65-45.89-15.44c-16.27-5.05-32.83-6.38-49.71-4.13
				c-16.4,2.19-32.36,6.92-47.95,12.38c-14.16,4.95-28.2,10.86-40.72,19.2c-6.52,4.35-12.63,9.32-18.09,14.95
				c-5.59,5.76-10.55,12.09-15.47,18.42c-8.19,10.53-15.53,21.64-22.75,32.85c-14.56,22.61-28.92,45.54-49.6,63.09
				c-2.48,2.11-4.73,3.86-7.35,5.74c-2.19,1.57-3.25,4.36-1.79,6.84C398.04,450.17,401.41,451.37,403.62,449.79L403.62,449.79z"/>
		</g>
	</g>
	<g>
		<g>
			<path class="st0" d="M685.6,301.41c1.89,0.81,3.71,1.78,5.42,2.91c0.44,0.29,0.88,0.6,1.31,0.91c0.19,0.14,0.38,0.28,0.57,0.42
				c0.56,0.4-0.71-0.57-0.17-0.14c0.81,0.67,1.62,1.33,2.4,2.04c1.44,1.32,2.8,2.73,4.1,4.2c0.64,0.72,1.26,1.46,1.87,2.2
				c0.28,0.35,0.56,0.7,0.84,1.05c0.14,0.17,0.27,0.35,0.41,0.52c0.72,0.92-0.67-0.89,0.03,0.04c2.11,2.8,4.12,5.68,6.23,8.49
				c2.16,2.87,4.52,5.46,6.91,8.13c4.51,5.04,8.71,10.36,13.21,15.41c4.88,5.46,10.19,10.45,16.15,14.72
				c8.3,5.96,17.79,10.1,27.53,13.1c2.5,0.77,5.56-0.91,6.15-3.49c0.62-2.71-0.82-5.33-3.49-6.15c-2.38-0.73-4.73-1.53-7.06-2.41
				c-0.52-0.2-1.03-0.4-1.55-0.6c-0.32-0.13-0.63-0.25-0.95-0.38c-0.15-0.06-0.94-0.4-0.33-0.14c0.61,0.26-0.17-0.08-0.32-0.14
				c-0.24-0.11-0.48-0.21-0.72-0.32c-0.53-0.24-1.06-0.48-1.59-0.73c-3.72-1.75-7.31-3.76-10.72-6.05c-0.73-0.49-1.45-1-2.17-1.51
				c-0.39-0.29-0.78-0.57-1.17-0.87c-0.07-0.05-0.52-0.37-0.51-0.39c-0.02,0.05,0.97,0.76,0.13,0.1c-1.38-1.1-2.73-2.23-4.04-3.41
				c-2.52-2.27-4.9-4.69-7.18-7.19c-4.55-4.99-8.73-10.29-13.19-15.36c-2.13-2.42-4.3-4.8-6.39-7.25c0.04,0.05,0.76,1,0.27,0.35
				c-0.11-0.15-0.23-0.3-0.34-0.45c-0.23-0.31-0.46-0.61-0.69-0.92c-0.53-0.72-1.06-1.45-1.58-2.17c-1.05-1.45-2.1-2.91-3.17-4.35
				c-5.69-7.61-12.22-14.96-21.15-18.79c-1.29-0.55-2.44-0.89-3.85-0.5c-1.16,0.32-2.42,1.22-2.99,2.3
				C682.67,296.71,683.03,300.31,685.6,301.41L685.6,301.41z"/>
		</g>
	</g>
	<g>
		<g>
			<path class="st0" d="M721.51,309.05c4.65,0.5,9.4-0.86,13.65-2.64c4.69-1.97,9.09-4.46,13.45-7.08
				c3.75-2.26,7.46-4.57,11.43-6.42c1.18-0.55,2.37-1.09,3.56-1.62c0.67-0.3,1.34-0.59,2.02-0.88c0.27-0.12,0.54-0.23,0.81-0.35
				c-0.99,0.42,0.45-0.19,0.65-0.27c2.64-1.09,5.32-2.12,8.02-3.04c2.88-0.98,5.81-1.85,8.79-2.51c0.76-0.17,1.52-0.32,2.28-0.45
				c0.25-0.04,0.5-0.09,0.74-0.13c0.24-0.04,0.49-0.08,0.74-0.11c-0.66,0.09-0.8,0.11-0.42,0.06c1.32-0.14,2.64-0.25,3.97-0.26
				c2.61-0.02,5.12-2.29,5-5c-0.12-2.7-2.2-5.02-5-5c-11.32,0.07-22.48,4.79-32.65,9.31c-4.25,1.89-8.29,3.99-12.28,6.4
				c-4.05,2.45-8.09,4.95-12.35,7.02c-0.65,0.32-1.31,0.61-1.97,0.92c-0.23,0.11-0.86,0.42,0.21-0.08c-0.32,0.15-0.65,0.27-0.98,0.4
				c-1.17,0.46-2.36,0.86-3.57,1.2c-0.63,0.17-1.27,0.32-1.92,0.45c-0.21,0.04-0.42,0.07-0.63,0.11c-1.01,0.2,1.2-0.08-0.08,0.01
				c-1.17,0.08-2.31,0.11-3.48-0.02c-2.61-0.28-5.11,2.5-5,5C716.65,307,718.72,308.75,721.51,309.05L721.51,309.05z"/>
		</g>
	</g>
	<g>
		<g>
			<path class="st0" d="M595.52,285.32c10.81-1.1,21.48-3.57,31.5-7.79c4.08-1.71,8.11-3.6,11.77-6.11
				c2.05-1.41,3.94-3.04,5.89-4.58c0.25-0.2,0.5-0.39,0.75-0.59c-0.16,0.13-0.67,0.51,0.11-0.08c0.55-0.42,1.1-0.84,1.66-1.25
				c1.13-0.84,2.27-1.67,3.42-2.47c3.8-2.66,7.73-5.14,11.81-7.35c1.76-0.96,3.54-1.86,5.36-2.71c0.79-0.37,1.58-0.73,2.38-1.07
				c0.18-0.08,0.37-0.15,0.54-0.23c-1.24,0.6-0.58,0.24-0.26,0.11c0.44-0.18,0.87-0.35,1.31-0.53c2.7-1.06,5.45-1.97,8.26-2.68
				c1.14-0.29,2.29-0.55,3.45-0.77c0.51-0.1,1.02-0.18,1.53-0.27c0.21-0.03,0.43-0.06,0.64-0.1c0.68-0.11-1,0.15-0.87,0.12
				c0.14-0.03,0.3-0.04,0.45-0.06c1.49-0.17,2.99-0.29,4.5-0.27c0.84,0.01,2.9,0.29,0.32-0.08c1.39,0.2,2.59,0.23,3.85-0.5
				c1.04-0.61,2.03-1.8,2.3-2.99c0.54-2.37-0.72-5.75-3.49-6.15c-2-0.29-3.95-0.33-5.97-0.16c-4.99,0.42-9.9,1.53-14.63,3.16
				c-7.69,2.65-15.01,6.39-21.85,10.77c-4.78,3.06-9.35,6.44-13.78,10c-0.51,0.41-1.02,0.83-1.53,1.24
				c-0.98,0.8,0.63-0.45-0.04,0.04c-0.79,0.57-1.59,1.13-2.41,1.65c-1.69,1.07-3.45,2.04-5.25,2.92c-1.11,0.55-2.23,1.06-3.36,1.56
				c-0.22,0.1-0.85,0.41,0.13-0.05c-0.35,0.16-0.73,0.3-1.09,0.45c-0.62,0.25-1.24,0.49-1.87,0.73c-2.64,1-5.32,1.88-8.03,2.65
				c-2.88,0.82-5.79,1.53-8.73,2.12c-1.59,0.32-3.18,0.6-4.78,0.84c-0.31,0.05-0.61,0.09-0.92,0.14c-0.23,0.03-0.46,0.07-0.69,0.1
				c0.48-0.07,0.54-0.07,0.17-0.03c-0.85,0.09-1.7,0.2-2.56,0.29c-2.59,0.26-5.13,2.11-5,5C590.63,282.8,592.74,285.6,595.52,285.32
				L595.52,285.32z"/>
		</g>
	</g>
	<g>
		<g>
			<path class="st0" d="M460.41,383.2c1.96-2.77,3.6-5.79,5.27-8.75c2.76-4.9,5.44-9.85,8.11-14.8
				c6.84-12.68,13.59-25.41,20.51-38.06c6.19-11.33,12.39-22.71,19.36-33.58c1.2-1.88,2.43-3.74,3.74-5.54
				c0.24-0.34,0.49-0.67,0.74-1.01c0.67-0.9-0.68,0.85-0.31,0.39c0.13-0.16,0.25-0.32,0.38-0.48c0.45-0.55,0.91-1.1,1.4-1.61
				c0.77-0.81,1.67-1.48,2.52-2.21c1.86-1.58,3.68-3.21,5.48-4.86c5.95-5.49,11.61-11.31,16.82-17.52
				c6.22-7.42,12.05-15.4,16.08-24.25c1.06-2.32,2.03-4.68,2.83-7.1c0.83-2.48-0.96-5.57-3.49-6.15c-2.76-0.63-5.26,0.83-6.15,3.49
				c-0.36,1.08-0.75,2.14-1.17,3.2c-0.08,0.21-0.2,0.43-0.26,0.64c0.35-1.15,0.17-0.4,0.03-0.08c-0.26,0.59-0.52,1.17-0.79,1.75
				c-0.99,2.09-2.08,4.13-3.25,6.13c-1.19,2.04-2.46,4.02-3.8,5.97c-0.69,1-1.39,1.99-2.11,2.97c-0.32,0.44-0.65,0.88-0.97,1.32
				c-0.18,0.24-0.36,0.48-0.55,0.72c-0.07,0.1-0.15,0.19-0.22,0.29c-0.33,0.43-0.29,0.38,0.12-0.15c-0.41,0.26-0.82,1.04-1.12,1.42
				c-0.3,0.37-0.6,0.75-0.9,1.12c-0.78,0.96-1.58,1.92-2.39,2.86c-1.45,1.69-2.93,3.36-4.45,5c-2.73,2.95-5.55,5.82-8.46,8.6
				c-3.21,3.07-6.53,6-9.92,8.87c-2.71,2.31-4.75,5.54-6.72,8.47c-6.83,10.18-12.72,21.01-18.63,31.74
				c-7.02,12.74-13.85,25.59-20.74,38.4c-4.74,8.82-9.28,17.88-14.69,26.33c-0.31,0.48-0.62,0.96-0.95,1.42
				c-1.52,2.14-0.45,5.65,1.79,6.84C456.14,386.35,458.79,385.48,460.41,383.2L460.41,383.2z"/>
		</g>
	</g>
</g>
</svg>
