<?xml version="1.0" encoding="utf-8"?>
<!-- Generator: Adobe Illustrator 24.2.0, SVG Export Plug-In . SVG Version: 6.00 Build 0)  -->
<svg version="1.1" id="Capa_1" xmlns="http://www.w3.org/2000/svg" xmlns:xlink="http://www.w3.org/1999/xlink" x="0px" y="0px"
	 viewBox="0 0 16 16" style="enable-background:new 0 0 16 16;" xml:space="preserve">
<style type="text/css">
	.st0{fill:#FFFFFF;}
</style>
<path d="M15.26,16H0.74C0.33,16,0,15.67,0,15.26L0,0.74C0,0.33,0.33,0,0.74,0l14.52,0C15.67,0,16,0.33,16,0.74v14.52
	C16,15.67,15.67,16,15.26,16z"/>
<g>
	<g>
		<path class="st0" d="M1.29,10.13V2h2.92C5.25,2,6.05,2.19,6.6,2.58c0.54,0.38,0.82,0.94,0.82,1.67c0,0.42-0.1,0.78-0.29,1.08
			c-0.19,0.3-0.48,0.52-0.85,0.66C6.69,6.09,7.02,6.3,7.25,6.61c0.23,0.31,0.34,0.68,0.34,1.12c0,0.8-0.25,1.4-0.76,1.8
			c-0.51,0.4-1.25,0.6-2.24,0.61H1.29z M3.25,5.39h1.02C4.7,5.39,5,5.31,5.18,5.16C5.37,5,5.46,4.78,5.46,4.48
			c0-0.34-0.1-0.59-0.3-0.74c-0.2-0.15-0.52-0.23-0.96-0.23H3.25V5.39z M3.25,6.68v1.95h1.28c0.35,0,0.63-0.08,0.82-0.24
			C5.54,8.22,5.63,7.99,5.63,7.7c0-0.68-0.34-1.02-1.01-1.02H3.25z"/>
	</g>
	<g>
		<path class="st0" d="M10.26,10.13h-2.1v-0.08l1.7-3.28c-0.49-0.23-0.85-0.53-1.08-0.9C8.55,5.49,8.44,5.02,8.44,4.45
			c0-0.78,0.27-1.39,0.82-1.81C9.8,2.21,10.55,2,11.51,2h3.2v8.13h-1.96V7.26h-1.06L10.26,10.13z M12.75,3.51h-1.24
			c-0.37,0-0.65,0.1-0.84,0.3c-0.19,0.2-0.28,0.47-0.28,0.83c0,0.35,0.09,0.62,0.28,0.82c0.19,0.2,0.47,0.29,0.84,0.29h1.24V3.51z"
			/>
	</g>
</g>
<g>
	<path class="st0" d="M2.51,13.07c0,0.32-0.07,0.57-0.21,0.76c-0.14,0.19-0.33,0.28-0.58,0.28c-0.19,0-0.34-0.07-0.46-0.2v0.95H0.63
		v-2.81h0.59l0.02,0.19C1.36,12.08,1.52,12,1.72,12c0.25,0,0.45,0.09,0.58,0.28c0.14,0.19,0.21,0.44,0.21,0.76V13.07z M1.88,13.03
		c0-0.36-0.11-0.54-0.32-0.54c-0.15,0-0.25,0.05-0.3,0.16v0.8c0.06,0.11,0.16,0.17,0.3,0.17c0.2,0,0.31-0.17,0.31-0.52V13.03z"/>
	<path class="st0" d="M2.71,13.04c0-0.2,0.04-0.38,0.12-0.54c0.08-0.16,0.19-0.28,0.34-0.37S3.49,12,3.69,12
		c0.3,0,0.54,0.09,0.72,0.28c0.18,0.19,0.26,0.44,0.26,0.77v0.02c0,0.32-0.09,0.57-0.26,0.75c-0.18,0.19-0.41,0.28-0.71,0.28
		c-0.29,0-0.52-0.09-0.7-0.26c-0.18-0.17-0.27-0.41-0.28-0.7L2.71,13.04z M3.34,13.08c0,0.19,0.03,0.33,0.09,0.41
		s0.15,0.13,0.26,0.13c0.23,0,0.34-0.17,0.35-0.52v-0.06c0-0.36-0.12-0.55-0.35-0.55c-0.21,0-0.33,0.16-0.34,0.47L3.34,13.08z"/>
	<path class="st0" d="M6.18,12.61L5.97,12.6c-0.2,0-0.33,0.06-0.38,0.19v1.29H4.96v-2.03h0.59l0.02,0.26C5.68,12.1,5.82,12,6.01,12
		c0.07,0,0.13,0.01,0.18,0.02L6.18,12.61z"/>
	<path class="st0" d="M7.24,11.53v0.51h0.33v0.44H7.24v0.93c0,0.08,0.01,0.13,0.04,0.16s0.08,0.05,0.16,0.05
		c0.06,0,0.12,0,0.16-0.01v0.45c-0.11,0.04-0.23,0.05-0.36,0.05c-0.22,0-0.38-0.05-0.48-0.15c-0.1-0.1-0.16-0.26-0.16-0.47v-1.01
		H6.35v-0.44h0.26v-0.51H7.24z"/>
	<path class="st0" d="M7.96,14.07v-1.59H7.67v-0.44h0.29v-0.16c0-0.23,0.07-0.41,0.2-0.54c0.14-0.13,0.33-0.19,0.57-0.19
		c0.09,0,0.19,0.01,0.3,0.04l0,0.47C9,11.64,8.95,11.64,8.88,11.64c-0.19,0-0.29,0.08-0.29,0.25v0.16h0.4v0.44H8.6v1.59H7.96z"/>
	<path class="st0" d="M9.14,13.04c0-0.2,0.04-0.38,0.12-0.54c0.08-0.16,0.19-0.28,0.34-0.37S9.91,12,10.11,12
		c0.3,0,0.54,0.09,0.72,0.28s0.26,0.44,0.26,0.77v0.02c0,0.32-0.09,0.57-0.26,0.75c-0.18,0.19-0.41,0.28-0.71,0.28
		c-0.29,0-0.52-0.09-0.7-0.26c-0.18-0.17-0.27-0.41-0.28-0.7L9.14,13.04z M9.77,13.08c0,0.19,0.03,0.33,0.09,0.41
		s0.15,0.13,0.26,0.13c0.23,0,0.34-0.17,0.35-0.52v-0.06c0-0.36-0.12-0.55-0.35-0.55c-0.21,0-0.33,0.16-0.34,0.47L9.77,13.08z"/>
	<path class="st0" d="M12.04,14.07h-0.63v-2.88h0.63V14.07z"/>
	<path class="st0" d="M12.43,11.52c0-0.09,0.03-0.16,0.1-0.22c0.07-0.06,0.15-0.09,0.25-0.09c0.1,0,0.19,0.03,0.25,0.09
		c0.07,0.06,0.1,0.13,0.1,0.22c0,0.09-0.03,0.16-0.1,0.22s-0.15,0.09-0.25,0.09c-0.1,0-0.19-0.03-0.25-0.09S12.43,11.61,12.43,11.52
		z M13.1,14.07h-0.63v-2.03h0.63V14.07z"/>
	<path class="st0" d="M13.41,13.04c0-0.2,0.04-0.38,0.12-0.54c0.08-0.16,0.19-0.28,0.34-0.37c0.15-0.09,0.32-0.13,0.52-0.13
		c0.3,0,0.54,0.09,0.72,0.28c0.18,0.19,0.26,0.44,0.26,0.77v0.02c0,0.32-0.09,0.57-0.26,0.75c-0.18,0.19-0.41,0.28-0.71,0.28
		c-0.29,0-0.52-0.09-0.7-0.26c-0.18-0.17-0.27-0.41-0.28-0.7L13.41,13.04z M14.04,13.08c0,0.19,0.03,0.33,0.09,0.41
		s0.15,0.13,0.26,0.13c0.23,0,0.34-0.17,0.35-0.52v-0.06c0-0.36-0.12-0.55-0.35-0.55c-0.21,0-0.33,0.16-0.34,0.47L14.04,13.08z"/>
</g>
</svg>
