<svg width="1512" height="982" viewBox="0 0 1512 982" fill="none" xmlns="http://www.w3.org/2000/svg">
<path d="M699.867 1015.14L267.666 952.345L-81.1791 856.386L-80.3679 703.619L322.758 672.15L103.518 535.936L229.594 463.886L-78.7845 405.418L-77.4509 154.269L231.894 30.639L599.441 85.7551L1131.96 53.1398L1434.99 74.3036L1386.26 201.762L1184.9 178.693L633.23 336.479L982.707 313.281L1432.06 627.32L1329.95 711.108L1431.06 815.529L1328.64 957.979L1127.02 984.407L699.867 1015.14Z" fill="#1F1F1F"/>
<path d="M498.275 -118L252.632 -38.042L46.7471 -82.9499L-135 135.018L-15.7285 246.74L-98.0826 405.561L129.101 560H452.838L539.452 324.507L707 246.74L638.845 -38.042L498.275 -118Z" fill="#8A2121"/>
<path d="M1734 609.927L1469.87 393.053L1377.59 349L1025.95 382.887L984.58 555.709L730 779.36L760.231 887.798L815.921 1116.53L1051.41 1186L1086.41 991.152H1280.53H1566.93L1650.47 800.54L1734 609.927Z" fill="#2D0B0B"/>
<path d="M1522.71 431.996L1573.87 -164.182L1354.94 -217.775L1192.56 2.8157L647.203 -193.416L627.396 361.633L796.615 518.115L928.084 351.284L1209.81 503.893L1522.71 431.996Z" fill="#750404"/>
<path d="M-207.219 1038.36L-50.6693 651.927L-120.377 516.267L94.616 438.808L298.932 561.739L411.314 834.685L671.944 617.622L791.758 615.754L851.607 495.367L1019.15 602.784L965.627 816.766L828.05 1049.23L629.331 1109.03L304.09 978.778L27.0545 1123.58L-207.219 1038.36Z" fill="#693030"/>
</svg>

