<?xml version="1.0" encoding="utf-8"?>
<!-- Generator: Adobe Illustrator 24.2.0, SVG Export Plug-In . SVG Version: 6.00 Build 0)  -->
<svg version="1.1" id="Capa_1" xmlns="http://www.w3.org/2000/svg" xmlns:xlink="http://www.w3.org/1999/xlink" x="0px" y="0px"
	 viewBox="0 0 1920 1080" style="enable-background:new 0 0 1920 1080;" xml:space="preserve">
<style type="text/css">
	.st0{clip-path:url(#SVGID_2_);}
	.st1{display:none;}
	.st2{fill:#1F1F1F;}
	.st3{fill:#8A2121;}
	.st4{fill:#2D0B0B;}
	.st5{fill:#750404;}
	.st6{fill:#693030;}
</style>
<g>
	<defs>
		<rect id="SVGID_1_" y="-63.17" width="1920" height="1606.35"/>
	</defs>
	<clipPath id="SVGID_2_">
		<use xlink:href="#SVGID_1_"  style="overflow:visible;"/>
	</clipPath>
	<g class="st0">
		<rect y="-63.17" class="st1" width="1920" height="1606.35"/>
		<path class="st2" d="M888.72,1225.89l-548.83-79.74l-442.98-121.85l1.03-193.99l511.91-39.96l-278.4-172.97l160.1-91.49
			l-391.59-74.25l1.69-318.92L294.47-24.27l466.73,69.99L1437.41,4.3l384.8,26.87l-61.88,161.85l-255.7-29.29L804.1,364.1
			l443.78-29.46l570.61,398.78l-129.66,106.4l128.39,132.6l-130.06,180.89l-256.03,33.56L888.72,1225.89z"/>
		<path class="st3" d="M632.73-213.02L320.8-111.48L59.36-168.51l-230.79,276.78l151.46,141.87l-104.58,201.68l288.49,196.11h411.09
			L685.02,348.9l212.76-98.75l-86.55-361.63L632.73-213.02z"/>
		<path class="st4" d="M2201.9,711.34l-335.4-275.4L1749.32,380l-446.53,43.03l-52.53,219.46l-323.28,284l38.39,137.7l70.72,290.45
			l299.03,88.22l44.44-247.43h246.5h363.68l106.08-242.05L2201.9,711.34z"/>
		<path class="st5" d="M1933.6,485.39l64.97-757.05l-278.01-68.05L1514.36-59.6L821.85-308.78l-25.15,704.82l214.88,198.71
			l166.94-211.85l357.75,193.79L1933.6,485.39z"/>
		<path class="st6" d="M-263.14,1255.38l198.79-490.71l-88.52-172.27l273.01-98.36l259.45,156.1l142.71,346.6l330.96-275.64
			l152.14-2.37l76-152.87l212.75,136.4l-67.97,271.72l-174.7,295.19l-252.34,75.94l-413-165.4L34.35,1363.59L-263.14,1255.38z"/>
	</g>
</g>
</svg>
